<svg width="52" height="56" viewBox="0 0 52 56" fill="none" xmlns="http://www.w3.org/2000/svg">
<g filter="url(#filter0_d)">
<path d="M26 2C30.549 2 34.9958 3.34893 38.7781 5.8762C42.5604 8.40347 45.5084 11.9956 47.2492 16.1983C48.99 20.401 49.4455 25.0255 48.5581 29.4871C47.6706 33.9486 45.4801 38.0468 42.2635 41.2635C39.0468 44.4801 34.9486 46.6706 30.4871 47.5581C26.0255 48.4455 21.401 47.99 17.1983 46.2492C12.9956 44.5084 9.40347 41.5604 6.8762 37.7781C4.34893 33.9958 3 29.549 3 25C3 18.9 5.42321 13.0499 9.73654 8.73654C14.0499 4.42321 19.9 2 26 2V2Z" fill="white"/>
</g>
<path d="M36.4061 31.794C35.1614 31.0377 33.8433 30.4095 32.4721 29.919V29.009C33.1221 28.588 33.3721 27.509 33.7601 25.602C33.8101 25.356 33.8601 25.102 33.9151 24.853C34.4371 23.7907 35.0632 22.7828 35.7841 21.844C36.9651 20.194 38.1841 18.489 38.0611 16.479L37.9801 16.184C37.4539 15.0154 36.7011 13.9629 35.7653 13.0875C34.8294 12.212 33.7291 11.5311 32.5281 11.084C31.9278 10.8769 31.3136 10.7129 30.6901 10.593C30.4811 10.549 30.3011 10.511 30.1501 10.472L30.0971 10.462C28.7297 10.1816 27.3396 10.027 25.9441 9.99999C25.3583 9.99783 24.7731 10.0379 24.1931 10.12C23.4254 10.2801 22.683 10.5435 21.9861 10.903C21.2276 11.3055 20.4079 11.5801 19.5601 11.716L19.3771 11.752C18.2943 12.0414 17.3581 12.7238 16.7511 13.666L16.6591 13.795L16.5851 13.922C16.0515 15.0431 15.9106 16.3111 16.1851 17.522L16.2011 17.583C16.4011 18.227 16.6431 18.852 16.8741 19.457C17.3692 20.6137 17.7276 21.8242 17.9421 23.064L18.0321 23.332C18.2288 23.7452 18.3826 24.1774 18.4911 24.622C18.7567 25.8667 19.3352 27.0231 20.1721 27.982V28.082V29.508C18.5212 30.2892 16.9139 31.1591 15.3571 32.114C14.8091 32.521 14.0911 33.514 15.4071 34.349C16.4181 34.99 19.6421 36.673 19.6321 36.77C19.5228 37.6917 19.7539 38.6217 20.2821 39.385C20.6305 39.7602 21.0562 40.0556 21.5297 40.2506C22.0032 40.4457 22.5134 40.5359 23.0251 40.515C24.0691 40.5303 25.0843 40.1725 25.8881 39.506C26.057 39.3562 26.2093 39.1886 26.3421 39.006C26.4753 39.1885 26.6278 39.3562 26.7971 39.506C27.6008 40.1725 28.616 40.5303 29.6601 40.515C30.1717 40.5359 30.6819 40.4457 31.1554 40.2506C31.6289 40.0556 32.0546 39.7602 32.4031 39.385C32.9898 38.4904 33.2084 37.4038 33.0131 36.352C33.0131 36.352 35.1971 34.732 36.2211 33.764C36.3808 33.6604 36.515 33.522 36.6137 33.3592C36.7123 33.1964 36.7728 33.0133 36.7906 32.8238C36.8084 32.6342 36.783 32.4431 36.7164 32.2648C36.6498 32.0864 36.5437 31.9255 36.4061 31.794V31.794Z" fill="white"/>
<path d="M34.004 31.228C34.7164 31.445 35.3726 31.8157 35.926 32.314C35.9735 32.3417 36.0133 32.3808 36.0418 32.4278C36.0702 32.4747 36.0865 32.5281 36.089 32.583C36.089 32.7503 35.964 32.9107 35.714 33.064C35.2586 33.368 34.819 33.6951 34.397 34.044C33.9817 34.3853 33.5451 34.6999 33.09 34.986C33.0306 35.0166 32.9649 35.0331 32.898 35.034C32.8048 35.035 32.7149 34.9991 32.648 34.934C32.6148 34.9043 32.5881 34.868 32.5699 34.8273C32.5516 34.7866 32.5421 34.7426 32.542 34.698C32.5429 34.6193 32.5736 34.5439 32.628 34.487C32.7707 34.3047 32.9552 34.1596 33.166 34.064C33.4106 33.9284 33.6422 33.7707 33.858 33.593C34.1914 33.3263 34.422 33.15 34.55 33.064C34.832 32.9233 34.973 32.8233 34.973 32.764C34.9728 32.7507 34.9694 32.7377 34.963 32.726C34.7898 32.4404 34.5208 32.2257 34.204 32.12C33.89 32.0307 33.5727 31.9377 33.252 31.841C32.9322 31.7611 32.642 31.591 32.416 31.351C32.403 31.3311 32.3963 31.3078 32.397 31.284C32.408 31.1849 32.4562 31.0937 32.532 31.029C32.5636 30.9896 32.6028 30.957 32.6473 30.9331C32.6918 30.9092 32.7407 30.8945 32.791 30.89C32.8414 30.8772 32.8931 30.8709 32.945 30.871C33.1345 30.8808 33.3204 30.9263 33.493 31.005C33.6597 31.0757 33.8297 31.1497 34.003 31.227L34.004 31.228ZM19.003 30.909C19.133 30.9038 19.2606 30.9449 19.363 31.025C19.4052 31.0562 19.4397 31.0967 19.4638 31.1433C19.4879 31.19 19.501 31.2415 19.502 31.294C19.5019 31.3314 19.4943 31.3684 19.4795 31.4028C19.4647 31.4372 19.4431 31.4682 19.416 31.494C19.0344 31.8258 18.5899 32.0775 18.109 32.234C17.6244 32.3887 17.1962 32.683 16.878 33.08C17.3335 33.3467 17.8054 33.5842 18.291 33.791C19.2204 34.2077 19.701 34.4223 19.733 34.435C19.7886 34.4569 19.8361 34.4955 19.8689 34.5454C19.9016 34.5954 19.9181 34.6543 19.916 34.714C19.9226 34.7923 19.9088 34.8711 19.8761 34.9425C19.8433 35.014 19.7927 35.0758 19.729 35.122C19.5953 35.2329 19.4267 35.2928 19.253 35.291C19.1845 35.2909 19.1166 35.2777 19.053 35.252C18.9534 35.1555 18.8475 35.0656 18.736 34.983C17.89 34.5217 16.9864 34.0827 16.025 33.666C15.925 33.628 15.833 33.592 15.737 33.561C15.6835 33.5405 15.6361 33.5068 15.599 33.4631C15.562 33.4195 15.5365 33.3671 15.525 33.311C15.5296 33.1646 15.5644 33.0207 15.6272 32.8884C15.69 32.756 15.7795 32.6381 15.89 32.542C16.3439 32.2142 16.8341 31.94 17.351 31.725C17.8623 31.5171 18.3439 31.2424 18.783 30.908L19.003 30.909Z" fill="#4A352A"/>
<path d="M25.041 30.904C24.9213 30.718 24.7716 30.553 24.598 30.416C24.4594 30.3196 24.2938 30.2696 24.125 30.273C24.0685 30.2712 24.0123 30.2815 23.96 30.303L22.893 30.671C22.825 30.692 22.7541 30.7021 22.683 30.701C22.5611 30.7059 22.441 30.6708 22.341 30.601C22.214 30.4894 22.1062 30.3577 22.022 30.211L21.729 30.411C21.8555 30.6129 22.0155 30.7918 22.202 30.94C22.3513 31.034 22.5258 31.08 22.702 31.072C22.791 31.072 22.8796 31.0592 22.965 31.034L23.941 30.681C24.0084 30.6555 24.0799 30.6427 24.152 30.643C24.2575 30.6377 24.3621 30.6646 24.452 30.72C24.5745 30.8207 24.6811 30.9394 24.768 31.072L25.046 30.906" fill="#4A352A"/>
<path fill-rule="evenodd" clip-rule="evenodd" d="M32.232 36.784C32.767 39.984 28.852 40.295 27.246 38.858C26.136 37.865 26.446 36.485 28.04 36.569C29.44 36.643 30.269 38.45 32.232 36.784Z" fill="#4A352A"/>
<path fill-rule="evenodd" clip-rule="evenodd" d="M20.344 36.784C19.809 39.984 23.724 40.295 25.33 38.858C26.44 37.865 26.13 36.485 24.536 36.569C23.136 36.643 22.307 38.45 20.344 36.784" fill="#4A352A"/>
<path d="M24.184 32.138C23.9889 32.0072 23.7577 31.9411 23.523 31.949C23.2386 31.9376 22.9614 32.0393 22.752 32.232C22.6341 32.3466 22.5476 32.4895 22.5007 32.6471C22.4538 32.8046 22.448 32.9716 22.484 33.132C22.5116 33.4376 22.6292 33.7282 22.822 33.967C22.9022 34.0779 23.0073 34.1684 23.1289 34.2313C23.2505 34.2941 23.3851 34.3276 23.522 34.329C23.7044 34.3253 23.883 34.2765 24.042 34.187C24.2109 34.0648 24.3439 33.8994 24.427 33.7082C24.51 33.5169 24.5401 33.3069 24.514 33.1C24.5385 32.925 24.5213 32.7467 24.464 32.5795C24.4067 32.4124 24.3107 32.2611 24.184 32.138V32.138ZM23.509 33.412C23.4425 33.412 23.3776 33.3923 23.3223 33.3554C23.2671 33.3184 23.224 33.266 23.1986 33.2046C23.1731 33.1432 23.1665 33.0756 23.1794 33.0104C23.1924 32.9453 23.2244 32.8854 23.2714 32.8384C23.3184 32.7914 23.3783 32.7594 23.4434 32.7465C23.5086 32.7335 23.5762 32.7401 23.6376 32.7656C23.699 32.791 23.7514 32.8341 23.7884 32.8893C23.8253 32.9446 23.845 33.0095 23.845 33.076C23.845 33.1644 23.8101 33.2493 23.748 33.3122C23.6858 33.3751 23.6014 33.4109 23.513 33.412H23.509Z" fill="#4A352A"/>
<path d="M26.5281 36.292C26.6248 36.2921 26.7207 36.2745 26.8111 36.24C26.8983 36.2062 26.9805 36.1605 27.0551 36.104C27.128 36.0475 27.195 35.9839 27.2551 35.914C27.3132 35.8476 27.366 35.7767 27.4131 35.702C27.4544 35.638 27.4912 35.5712 27.5231 35.502C27.5476 35.4491 27.5677 35.3942 27.5831 35.338C27.5801 35.3275 27.5757 35.3174 27.5701 35.308C27.5647 35.2971 27.5583 35.2868 27.5511 35.277C27.5441 35.269 27.5391 35.265 27.5361 35.266C27.463 35.4081 27.3671 35.5371 27.2521 35.648C27.1513 35.7432 27.0322 35.817 26.9021 35.865C26.7696 35.9121 26.6297 35.9351 26.4891 35.933C26.3734 35.9344 26.2583 35.9172 26.1481 35.882C26.05 35.8506 25.958 35.8026 25.8761 35.74C25.7933 35.6752 25.7196 35.5996 25.6571 35.515C25.589 35.4238 25.5291 35.3268 25.4781 35.225C25.4781 35.225 25.4701 35.225 25.4631 35.235C25.4557 35.2432 25.4493 35.2523 25.4441 35.262C25.4408 35.2689 25.4391 35.2764 25.4391 35.284C25.4883 35.4189 25.5495 35.5491 25.6221 35.673C25.6903 35.7894 25.7722 35.8971 25.8661 35.994C25.9527 36.0837 26.0542 36.1578 26.1661 36.213C26.278 36.2659 26.4003 36.2936 26.5241 36.294" fill="#4A352A"/>
<path d="M29.65 32.115C29.455 31.9842 29.2237 31.9181 28.989 31.926C28.7044 31.9146 28.4268 32.0164 28.217 32.209C28.0993 32.3237 28.0129 32.4666 27.966 32.6242C27.9191 32.7817 27.9132 32.9486 27.949 33.109C27.9769 33.4144 28.0949 33.7047 28.288 33.943C28.3682 34.0539 28.4733 34.1445 28.5949 34.2074C28.7165 34.2702 28.8511 34.3037 28.988 34.305C29.1704 34.3012 29.349 34.2524 29.508 34.163C29.6771 34.0411 29.8102 33.8759 29.8934 33.6849C29.9766 33.4938 30.0069 33.2838 29.981 33.077C30.0054 32.9019 29.9882 32.7235 29.9307 32.5564C29.8732 32.3892 29.777 32.238 29.65 32.115V32.115ZM28.876 33.454C28.8095 33.454 28.7446 33.4343 28.6893 33.3974C28.6341 33.3605 28.591 33.308 28.5656 33.2466C28.5401 33.1852 28.5335 33.1176 28.5464 33.0524C28.5594 32.9873 28.5914 32.9274 28.6384 32.8804C28.6854 32.8334 28.7453 32.8014 28.8104 32.7885C28.8756 32.7755 28.9432 32.7821 29.0046 32.8076C29.066 32.833 29.1184 32.8761 29.1554 32.9313C29.1923 32.9866 29.212 33.0515 29.212 33.118C29.212 33.2071 29.1766 33.2926 29.1136 33.3556C29.0506 33.4186 28.9651 33.454 28.876 33.454Z" fill="#4A352A"/>
<path d="M31.9611 28.297C32.5081 28.058 32.7891 26.214 33.1611 24.497C34.4911 21.455 37.4611 19.216 37.2851 16.386C34.8391 11.612 31.4291 11.442 29.9661 11.062C28.1052 10.6405 26.1879 10.5264 24.2901 10.724C22.9451 10.924 21.2011 12.216 19.5901 12.324C18.6037 12.5868 17.7596 13.2259 17.2391 14.104C16.7719 15.0762 16.6468 16.1778 16.8841 17.23C17.6392 19.0469 18.2325 20.9268 18.6571 22.848C19.2781 23.948 19.3221 26.016 20.7411 27.41C25.0881 25.34 28.6391 26.946 31.9611 28.297Z" fill="url(#paint0_linear)"/>
<path d="M31.9101 28.319L31.5041 28.153C28.2421 26.821 24.8681 25.443 20.7041 27.425L20.6801 27.436L20.6621 27.418C19.8731 26.5338 19.3327 25.4562 19.0961 24.295C18.974 23.7951 18.7979 23.3099 18.5711 22.848V22.835C18.3484 21.5369 17.9756 20.269 17.4601 19.057C17.2321 18.457 16.9961 17.845 16.7991 17.219C16.5608 16.1582 16.6862 15.048 17.1551 14.067L17.2551 13.926C17.778 13.1101 18.5893 12.5213 19.5271 12.277C20.4667 12.1394 21.3757 11.8421 22.2151 11.398C22.8536 11.0686 23.5323 10.8238 24.2341 10.67C26.1357 10.4675 28.0578 10.5817 29.9221 11.008C30.0911 11.052 30.2801 11.092 30.4981 11.138C31.9731 11.3679 33.3664 11.9659 34.549 12.8769C35.7316 13.7879 36.6655 14.9825 37.2641 16.35V16.365C37.3741 18.125 36.2761 19.658 35.1141 21.281C34.3475 22.2802 33.6872 23.3567 33.1441 24.493C33.0871 24.763 33.0291 25.043 32.9731 25.32C32.6681 26.815 32.4041 28.106 31.9281 28.314L31.9101 28.319ZM24.9381 26.357C27.2283 26.4944 29.4689 27.0815 31.5321 28.085L31.9091 28.239C32.3421 28.025 32.6091 26.703 32.8981 25.305C32.9551 25.028 33.0121 24.748 33.0711 24.47C33.6183 23.3262 34.284 22.243 35.0571 21.238C36.2101 19.628 37.2991 18.108 37.1941 16.377C35.0431 12.177 32.1881 11.57 30.4821 11.21C30.2631 11.164 30.0731 11.124 29.9051 11.08C28.0497 10.6556 26.1368 10.5417 24.2441 10.743C23.5489 10.8957 22.8766 11.1385 22.2441 11.465C21.4011 11.9114 20.4879 12.2101 19.5441 12.348C18.6244 12.5904 17.8297 13.1702 17.3181 13.972L17.2181 14.107C16.758 15.0722 16.6355 16.1639 16.8701 17.207C17.0701 17.828 17.3011 18.443 17.5291 19.038C18.0453 20.2508 18.4194 21.5192 18.6441 22.818C18.8718 23.2834 19.0488 23.7718 19.1721 24.275C19.4053 25.4149 19.932 26.4741 20.7001 27.348C22.0199 26.7021 23.4687 26.3633 24.9381 26.357V26.357Z" fill="#BFAF98"/>
<path fill-rule="evenodd" clip-rule="evenodd" d="M20.8691 28.617C22.4361 27.786 26.3521 25.73 31.5991 29.335C31.7469 28.4976 31.7621 27.6421 31.6441 26.8C31.4961 24.8 23.6651 22.356 20.8251 26.758L20.8691 28.616" fill="url(#paint1_linear)"/>
<path d="M31.6071 29.363L31.5871 29.349C29.6535 27.8967 27.2659 27.1805 24.8521 27.329C23.4507 27.4852 22.0964 27.9277 20.8731 28.629L20.8501 28.641V28.615L20.8071 26.755C21.1989 26.159 21.7074 25.6485 22.3019 25.2544C22.8964 24.8603 23.5646 24.5908 24.2661 24.462C25.6299 24.19 27.0378 24.2334 28.3821 24.589C30.2481 25.064 31.5941 25.976 31.6561 26.805C31.7737 27.6485 31.7585 28.5052 31.6111 29.344L31.6071 29.363ZM25.6221 27.263C27.7716 27.3209 29.852 28.0348 31.5841 29.309C31.727 28.4811 31.7405 27.6361 31.6241 26.804C31.5651 26.004 30.1981 25.08 28.3741 24.615C27.035 24.261 25.6326 24.2175 24.2741 24.488C23.5775 24.6161 22.914 24.8838 22.3235 25.2749C21.7331 25.666 21.2278 26.1726 20.8381 26.764L20.8811 28.592C22.1014 27.8938 23.4519 27.4534 24.8491 27.298C25.1085 27.274 25.3671 27.262 25.6251 27.262L25.6221 27.263Z" fill="#C9BDA9"/>
<path fill-rule="evenodd" clip-rule="evenodd" d="M18.6641 13.79C18.4231 15.007 19.5001 18.85 19.1401 20.868C18.75 19.4459 18.4718 17.9955 18.3081 16.53C18.0646 15.8511 17.7241 15.2111 17.2971 14.63C16.9731 14.33 18.0371 12.577 18.6631 13.788" fill="url(#paint2_linear)"/>
<path d="M21.1231 26.161V26.155C19.7031 24.494 19.1231 21.634 18.6231 19.222C18.2321 17.308 17.8981 15.677 17.2541 15.162C17.1749 15.0564 17.1249 14.9319 17.1091 14.801C17.0857 14.5566 17.1347 14.3107 17.2501 14.094C17.3646 13.8627 17.5347 13.6634 17.7451 13.514C17.8829 13.4157 18.0425 13.3522 18.2101 13.329V13.361C18.0478 13.3833 17.8934 13.4447 17.7601 13.54C17.617 13.7172 17.4901 13.907 17.3811 14.107C17.0651 14.738 17.7201 14.707 17.9811 15.051C18.6341 15.575 18.6881 17.299 19.0811 19.218C19.5741 21.626 19.7331 24.482 21.1471 26.136V26.142L21.1211 26.163" fill="#9C8461"/>
<path fill-rule="evenodd" clip-rule="evenodd" d="M21.0692 13.291C20.8282 14.509 21.4452 17.302 21.0852 19.321C20.6952 17.8989 20.417 16.4485 20.2532 14.983C19.9262 14.274 19.5352 13.465 19.3062 13.046C19.1062 12.672 20.1802 12.163 21.0692 13.291" fill="url(#paint3_linear)"/>
<path d="M20.5991 12.867C20.5041 12.7856 20.3909 12.7282 20.2692 12.6995C20.1474 12.6708 20.0205 12.6717 19.8991 12.702C19.801 12.7123 19.7068 12.7466 19.6251 12.802C19.5551 12.8511 19.5073 12.9258 19.4921 13.01C19.4781 13.137 19.3921 13.159 19.5111 13.393C20.4259 14.8079 20.9614 16.4344 21.0661 18.116C21.2771 20.506 21.0001 23.152 22.5821 25.027L22.5561 25.047C20.9671 23.164 20.7331 20.512 20.5221 18.118C20.3561 16.237 20.2041 14.518 19.4221 13.454C19.356 13.3809 19.3052 13.2953 19.2729 13.2022C19.2406 13.109 19.2274 13.0103 19.2341 12.912C19.251 12.8201 19.3035 12.7385 19.3801 12.685C19.4667 12.6256 19.5667 12.5888 19.6711 12.578C20.0083 12.5508 20.3442 12.644 20.6191 12.841L20.5991 12.867" fill="#9C8461"/>
<path d="M24.9411 11.153C25.6721 12.375 24.3281 17.867 24.0911 21.322C24.0711 21.611 21.4911 9.922 24.9411 11.153" fill="url(#paint4_linear)"/>
<path d="M24.6341 24.373C23.6002 21.503 22.9722 18.5027 22.7681 15.459C22.6889 14.4526 22.7696 13.4401 23.0071 12.459C23.2381 11.675 23.6391 11.159 24.2591 11.071C24.4876 11.042 24.7195 11.0593 24.9411 11.122L24.9321 11.153C24.7075 11.1121 24.4768 11.1193 24.2551 11.174C23.7351 11.291 23.7961 11.616 23.4551 12.352C23.1886 13.2971 23.1031 14.2841 23.2031 15.261C23.6461 18.161 24.1911 22.113 24.6621 24.361L24.6301 24.372" fill="#AA9572"/>
<path d="M27.0602 24.184C27.0282 23.95 26.9952 23.709 26.9602 23.465C26.4182 19.554 25.7542 14.765 28.0812 11.331L28.1102 11.348C27.1572 13.892 27.0262 18.739 26.9102 20.303C26.8612 20.979 26.9392 22.427 26.9912 23.46L27.0912 24.179H27.0572" fill="#C3AE8A"/>
<path d="M29.5871 24.691C29.6691 22.663 29.8871 20.291 30.0791 18.24C30.5671 15.65 31.8861 14.423 32.2291 11.804L32.2351 11.771C31.0484 13.7574 30.2603 15.956 29.9151 18.244C29.5923 20.3758 29.4941 22.5357 29.6221 24.688H29.5871" fill="url(#paint5_linear)"/>
<path d="M35.6781 14.878C34.6291 18.129 33.3781 21.307 32.1091 24.522C32.1421 20.265 34.4261 15.142 35.6781 14.878" fill="url(#paint6_linear)"/>
<path d="M31.5092 25.956C32.0103 25.2266 32.2373 24.3436 32.1502 23.463C32.1391 22.4091 32.3288 21.3628 32.7092 20.38C32.7212 20.342 32.7402 20.274 32.7662 20.18C33.0732 19.104 34.3092 14.78 35.7522 14.86V14.893C34.6212 14.85 33.1842 19.127 32.8432 20.193C32.8172 20.283 32.8111 20.339 32.7971 20.381C32.4884 21.3815 32.2995 22.415 32.2342 23.46C32.3075 24.3546 32.0593 25.246 31.5342 25.974L31.5092 25.952" fill="#9C8461"/>
<path d="M15.4399 53.1333C15.4399 53.8206 15.6984 54.3124 16.4803 54.3124C16.8054 54.3161 17.1194 54.1941 17.3567 53.9719L17.4008 54.1421C17.4008 54.2052 17.4449 54.2493 17.5206 54.2493H17.653C17.6854 54.2494 17.7165 54.2369 17.74 54.2146C17.7635 54.1923 17.7775 54.1619 17.7791 54.1295V51.7777C17.7792 51.7454 17.7667 51.7142 17.7444 51.6907C17.7221 51.6673 17.6917 51.6533 17.6593 51.6516H17.4449C17.4109 51.6533 17.3789 51.6679 17.3554 51.6926C17.3319 51.7172 17.3188 51.75 17.3188 51.7841V53.5179C17.2186 53.6318 17.0955 53.7232 16.9575 53.7862C16.8195 53.8492 16.6698 53.8824 16.5181 53.8836C16.1461 53.8836 15.8876 53.644 15.8876 53.1459V51.7777C15.8876 51.7454 15.8752 51.7142 15.8529 51.6907C15.8306 51.6673 15.8001 51.6533 15.7678 51.6516H15.5471C15.5131 51.6533 15.481 51.6679 15.4576 51.6926C15.4341 51.7172 15.421 51.75 15.421 51.7841V53.1333H15.4399Z" fill="#29B57F"/>
<path fill-rule="evenodd" clip-rule="evenodd" d="M22.5456 52.5974C21.8521 52.5974 21.4738 52.9631 21.4738 53.4612C21.4667 53.5727 21.483 53.6844 21.5216 53.7892C21.5603 53.894 21.6205 53.9896 21.6982 54.0697C21.776 54.1499 21.8697 54.2129 21.9733 54.2547C22.0769 54.2965 22.1881 54.3161 22.2997 54.3124C22.6101 54.3136 22.9087 54.1938 23.132 53.9782L23.1825 54.1548C23.1825 54.2115 23.2203 54.2494 23.2959 54.2494H23.422C23.4544 54.2494 23.4856 54.237 23.5091 54.2147C23.5325 54.1924 23.5465 54.1619 23.5481 54.1296V52.6857C23.5481 51.9228 23.3842 51.5823 22.697 51.5823C22.3775 51.5815 22.0609 51.6414 21.7638 51.7589C21.7486 51.7623 21.7344 51.769 21.722 51.7785C21.7097 51.788 21.6996 51.8 21.6924 51.8138C21.6852 51.8276 21.6811 51.8428 21.6803 51.8584C21.6796 51.8739 21.6823 51.8895 21.6882 51.9039L21.7386 52.0678C21.7411 52.0812 21.7466 52.0939 21.7549 52.1049C21.7631 52.1158 21.7737 52.1247 21.7859 52.1308C21.7982 52.1369 21.8116 52.1401 21.8253 52.1401C21.839 52.1401 21.8525 52.1369 21.8647 52.1309C22.1238 52.038 22.3965 51.989 22.6717 51.9858C23.0564 51.9858 23.1194 52.2065 23.1131 52.692C22.931 52.6273 22.7389 52.5953 22.5456 52.5974V52.5974ZM22.3691 53.9278C22.3066 53.9314 22.244 53.9218 22.1855 53.8997C22.1269 53.8776 22.0736 53.8435 22.029 53.7995C21.9845 53.7556 21.9496 53.7027 21.9268 53.6445C21.9039 53.5862 21.8935 53.5238 21.8962 53.4612C21.8962 53.1207 22.1673 52.9379 22.5267 52.9379C22.7211 52.9273 22.9154 52.9618 23.0942 53.0388V53.5747C23.0024 53.6846 22.8877 53.7732 22.7581 53.8342C22.6285 53.8952 22.4871 53.9271 22.3439 53.9278H22.3691Z" fill="#4A79BC"/>
<path d="M24.1536 52.9442C24.1536 53.1247 24.1894 53.3033 24.2591 53.4698C24.3287 53.6363 24.4307 53.7873 24.5592 53.914C24.6876 54.0407 24.84 54.1406 25.0074 54.2079C25.1749 54.2752 25.354 54.3086 25.5344 54.3061C25.7389 54.3084 25.9407 54.2594 26.1213 54.1636C26.302 54.0677 26.4557 53.9281 26.5685 53.7576C26.5774 53.7423 26.5832 53.7254 26.5855 53.7079C26.5878 53.6904 26.5865 53.6725 26.5818 53.6555C26.5771 53.6385 26.569 53.6225 26.5581 53.6087C26.5471 53.5948 26.5335 53.5832 26.518 53.5747L26.4424 53.5243C26.4299 53.5097 26.4145 53.4979 26.397 53.4899C26.3796 53.4818 26.3607 53.4776 26.3415 53.4776C26.3223 53.4776 26.3033 53.4818 26.2859 53.4899C26.2685 53.4979 26.253 53.5097 26.2406 53.5243C26.14 53.638 26.0127 53.7249 25.8702 53.7772C25.7276 53.8294 25.5743 53.8453 25.424 53.8235C25.2738 53.8016 25.1314 53.7427 25.0096 53.652C24.8878 53.5613 24.7906 53.4417 24.7266 53.304C24.6626 53.1664 24.6339 53.0149 24.6431 52.8634C24.6523 52.7118 24.6991 52.5649 24.7793 52.436C24.8594 52.3071 24.9704 52.2001 25.1023 52.1248C25.2341 52.0496 25.3826 52.0083 25.5344 52.0048C25.6528 52.0021 25.7704 52.025 25.8792 52.0717C25.988 52.1185 26.0854 52.1881 26.1649 52.2759C26.228 52.3263 26.2595 52.3894 26.3604 52.2759L26.4865 52.175C26.5008 52.1645 26.5125 52.1507 26.5205 52.1348C26.5286 52.1189 26.5327 52.1014 26.5327 52.0836C26.5327 52.0658 26.5286 52.0482 26.5205 52.0323C26.5125 52.0165 26.5008 52.0027 26.4865 51.9921C26.374 51.8457 26.2286 51.7278 26.0621 51.6479C25.8957 51.5679 25.7127 51.5282 25.5281 51.5319C25.1591 51.5385 24.8076 51.6906 24.5502 51.9551C24.2928 52.2197 24.1502 52.5751 24.1536 52.9442V52.9442Z" fill="#4A79BC"/>
<path fill-rule="evenodd" clip-rule="evenodd" d="M28.2898 52.5974C27.5962 52.5974 27.2116 52.9631 27.2116 53.4612C27.2044 53.5732 27.2209 53.6855 27.2599 53.7908C27.299 53.896 27.3597 53.9919 27.4382 54.0722C27.5167 54.1524 27.6111 54.2153 27.7155 54.2567C27.8198 54.2981 27.9317 54.317 28.0439 54.3124C28.3538 54.3117 28.6517 54.1921 28.8761 53.9782L28.9266 54.1548C28.9266 54.2115 28.9644 54.2494 29.0401 54.2494H29.1662C29.1985 54.2494 29.2297 54.237 29.2532 54.2147C29.2766 54.1924 29.2906 54.1619 29.2923 54.1296V52.6857C29.2923 51.9228 29.1283 51.5823 28.4411 51.5823C28.1217 51.5815 27.805 51.6414 27.5079 51.7589C27.4927 51.7623 27.4785 51.769 27.4662 51.7785C27.4538 51.788 27.4437 51.8 27.4365 51.8138C27.4293 51.8276 27.4252 51.8428 27.4245 51.8584C27.4237 51.8739 27.4264 51.8895 27.4323 51.9039L27.4827 52.0678C27.4852 52.0812 27.4908 52.0939 27.499 52.1049C27.5072 52.1158 27.5178 52.1247 27.5301 52.1308C27.5423 52.1369 27.5558 52.1401 27.5694 52.1401C27.5831 52.1401 27.5966 52.1369 27.6088 52.1309C27.8679 52.038 28.1407 51.989 28.4159 51.9858C28.8005 51.9858 28.8635 52.2065 28.8572 52.692C28.6754 52.6263 28.4831 52.5943 28.2898 52.5974V52.5974ZM28.1132 53.9278C28.0507 53.9314 27.9882 53.9218 27.9296 53.8997C27.871 53.8776 27.8177 53.8435 27.7732 53.7995C27.7286 53.7556 27.6937 53.7027 27.6709 53.6445C27.648 53.5862 27.6376 53.5238 27.6403 53.4612C27.6403 53.1207 27.9052 52.9379 28.2708 52.9379C28.4653 52.9273 28.6595 52.9618 28.8383 53.0388V53.5747C28.7493 53.6815 28.6386 53.7681 28.5136 53.829C28.3886 53.8898 28.2522 53.9235 28.1132 53.9278Z" fill="#4A79BC"/>
<path fill-rule="evenodd" clip-rule="evenodd" d="M31.2152 51.5823C31.0381 51.5773 30.862 51.6097 30.6983 51.6773C30.5345 51.7449 30.3869 51.8462 30.2649 51.9747C30.143 52.1032 30.0495 52.256 29.9905 52.423C29.9315 52.59 29.9084 52.7676 29.9227 52.9442C29.9133 53.1177 29.9387 53.2913 29.9974 53.4548C30.056 53.6183 30.1467 53.7685 30.2642 53.8965C30.3816 54.0246 30.5235 54.1278 30.6814 54.2003C30.8393 54.2728 31.01 54.3131 31.1837 54.3187C31.4913 54.3098 31.7851 54.1887 32.0096 53.9782L32.0475 54.1548C32.0506 54.1826 32.0639 54.2083 32.0849 54.227C32.1058 54.2456 32.1329 54.2558 32.161 54.2556H32.2997C32.332 54.2557 32.3632 54.2433 32.3867 54.221C32.4102 54.1987 32.4241 54.1682 32.4258 54.1358V50.4222C32.4228 50.3903 32.4083 50.3607 32.3851 50.3387C32.362 50.3166 32.3316 50.3037 32.2997 50.3024H32.0916C32.0582 50.3024 32.0261 50.3157 32.0024 50.3393C31.9788 50.363 31.9655 50.395 31.9655 50.4285V51.7462C31.7385 51.6149 31.4763 51.5576 31.2152 51.5823V51.5823ZM31.2152 53.9026C31.0971 53.8972 30.9814 53.8677 30.8751 53.8159C30.7689 53.764 30.6744 53.6909 30.5976 53.6011C30.5208 53.5112 30.4632 53.4066 30.4284 53.2936C30.3937 53.1806 30.3825 53.0617 30.3955 52.9442C30.3836 52.8233 30.3979 52.7012 30.4374 52.5864C30.4769 52.4715 30.5407 52.3665 30.6245 52.2785C30.7083 52.1905 30.8101 52.1217 30.9229 52.0766C31.0357 52.0315 31.1569 52.0113 31.2783 52.0173C31.4973 52.0238 31.7124 52.0776 31.9088 52.175V53.4801C31.8279 53.5981 31.7222 53.697 31.5992 53.77C31.4761 53.8429 31.3386 53.8882 31.1963 53.9026H31.2152Z" fill="#4A79BC"/>
<path fill-rule="evenodd" clip-rule="evenodd" d="M34.3488 51.5823C33.9859 51.5823 33.6379 51.7264 33.3813 51.983C33.1247 52.2396 32.9806 52.5876 32.9806 52.9505C32.9806 53.3133 33.1247 53.6614 33.3813 53.9179C33.6379 54.1745 33.9859 54.3187 34.3488 54.3187C34.7011 54.322 35.0462 54.2187 35.3387 54.0223C35.4396 53.953 35.4143 53.9152 35.3387 53.8458L35.2819 53.7701L35.2252 53.6945C35.1747 53.6314 35.1369 53.6503 35.0613 53.6945C34.8598 53.8178 34.6291 53.8853 34.3929 53.8899C34.1646 53.886 33.9459 53.7974 33.7793 53.6412C33.6127 53.4851 33.51 53.2726 33.4913 53.0451H35.4269C35.4577 53.0468 35.488 53.0367 35.5115 53.0167C35.535 52.9968 35.5499 52.9685 35.5531 52.9379C35.5564 52.8791 35.5564 52.8201 35.5531 52.7613C35.5548 52.6039 35.5247 52.4477 35.4645 52.3021C35.4043 52.1566 35.3152 52.0248 35.2027 51.9146C35.0902 51.8045 34.9565 51.7182 34.8097 51.6611C34.663 51.604 34.5062 51.5772 34.3488 51.5823V51.5823ZM35.0991 52.6983H33.4976C33.5227 52.4944 33.6235 52.3074 33.78 52.1743C33.9364 52.0411 34.1372 51.9716 34.3425 51.9795C34.5363 51.9808 34.7224 52.0558 34.8629 52.1893C35.0034 52.3228 35.0879 52.5048 35.0991 52.6983V52.6983Z" fill="#4A79BC"/>
<path d="M36.1899 54.1295C36.1944 54.1619 36.2101 54.1916 36.2343 54.2136C36.2585 54.2355 36.2897 54.2481 36.3224 54.2493H36.5304C36.5639 54.2493 36.5959 54.236 36.6196 54.2124C36.6432 54.1887 36.6565 54.1567 36.6565 54.1232V52.383C36.7522 52.2719 36.87 52.1819 37.0025 52.1189C37.135 52.056 37.2791 52.0213 37.4257 52.0173C37.8419 52.0173 38.0562 52.2569 38.0562 52.755V54.1295C38.0593 54.1613 38.0737 54.191 38.0969 54.213C38.12 54.235 38.1504 54.2479 38.1823 54.2493H38.3967C38.4138 54.2502 38.4309 54.2475 38.4469 54.2416C38.4629 54.2356 38.4776 54.2265 38.49 54.2147C38.5024 54.2029 38.5122 54.1887 38.519 54.173C38.5257 54.1573 38.5291 54.1403 38.5291 54.1232V52.755C38.5288 52.6304 38.5183 52.506 38.4976 52.383C38.7152 52.1635 39.0083 52.035 39.3173 52.0236C39.7019 52.0236 39.9478 52.2695 39.9478 52.7613V54.1358C39.9478 54.1676 39.9604 54.1981 39.9828 54.2205C40.0053 54.243 40.0358 54.2556 40.0675 54.2556H40.2882C40.3217 54.2556 40.3537 54.2423 40.3774 54.2187C40.401 54.195 40.4143 54.163 40.4143 54.1295V52.7613C40.4143 52.0867 40.1558 51.5886 39.374 51.5886C38.9987 51.6125 38.6429 51.7638 38.3652 52.0173C38.2725 51.8769 38.1444 51.7633 37.9939 51.688C37.8434 51.6128 37.6757 51.5785 37.5077 51.5886C37.1817 51.5866 36.8676 51.7108 36.6313 51.9354L36.5682 51.7336C36.5637 51.7091 36.5502 51.6872 36.5304 51.6721C36.5106 51.6569 36.4859 51.6497 36.4611 51.6516H36.335C36.3013 51.653 36.2694 51.6666 36.245 51.6898C36.2207 51.713 36.2056 51.7442 36.2026 51.7777V54.1295H36.1899Z" fill="#4A79BC"/>
<path d="M42.2931 54.2431L41.7446 55.5797C41.7333 55.5972 41.7274 55.6175 41.7274 55.6382C41.7275 55.6589 41.7336 55.6792 41.7449 55.6965C41.7563 55.7139 41.7724 55.7276 41.7913 55.7359C41.8103 55.7443 41.8313 55.747 41.8517 55.7437H42.0913C42.1161 55.7424 42.1401 55.7347 42.1611 55.7215C42.1821 55.7082 42.1993 55.6898 42.2111 55.668L43.9829 51.803C44.027 51.721 43.9829 51.6454 43.882 51.6454H43.6235C43.5995 51.6465 43.5762 51.6541 43.5562 51.6675C43.5362 51.6808 43.5202 51.6993 43.51 51.721L42.5705 53.7071L41.568 51.721C41.5572 51.6997 41.5411 51.6816 41.5212 51.6683C41.5013 51.655 41.4784 51.6472 41.4545 51.6454H41.1519C41.051 51.6454 41.0132 51.7084 41.051 51.7967L42.2931 54.2431Z" fill="#4A79BC"/>
<path d="M18.4097 54.1295C18.4097 54.1613 18.4223 54.1918 18.4448 54.2143C18.4672 54.2367 18.4977 54.2493 18.5295 54.2493H18.7627C18.7962 54.2493 18.8283 54.2361 18.8519 54.2124C18.8756 54.1888 18.8888 54.1567 18.8888 54.1232V52.383C19.126 52.1613 19.4346 52.0316 19.7589 52.0174C20.1373 52.0174 20.3895 52.2569 20.3895 52.755V54.1295C20.3895 54.1613 20.4021 54.1918 20.4245 54.2143C20.447 54.2367 20.4775 54.2493 20.5093 54.2493H20.7362C20.7697 54.2493 20.8017 54.2361 20.8254 54.2124C20.849 54.1888 20.8623 54.1567 20.8623 54.1232V52.755C20.8623 52.0804 20.5975 51.5823 19.8157 51.5823C19.4724 51.5889 19.1415 51.7111 18.8762 51.9291L18.8132 51.7273C18.8116 51.7149 18.8076 51.7028 18.8014 51.6919C18.7951 51.681 18.7868 51.6715 18.7768 51.6639C18.7668 51.6562 18.7554 51.6507 18.7433 51.6475C18.7311 51.6443 18.7184 51.6436 18.706 51.6454H18.5799C18.547 51.6469 18.5158 51.6607 18.4924 51.684C18.4691 51.7073 18.4553 51.7385 18.4538 51.7715V54.1295H18.4097Z" fill="#29B57F"/>
<path d="M9.26631 51.5259C9.62386 51.5259 9.90112 51.6484 10.0981 51.8934C10.2967 52.1367 10.3961 52.4819 10.3961 52.9288C10.3961 53.3757 10.2959 53.7234 10.0956 53.9717C9.89698 54.2183 9.62055 54.3416 9.26631 54.3416C9.08919 54.3416 8.92697 54.3093 8.77965 54.2448C8.63398 54.1786 8.51149 54.0776 8.41217 53.9419H8.38238L8.29547 54.292H8V50.4285H8.41217V51.367C8.41217 51.5773 8.40555 51.766 8.39231 51.9331H8.41217C8.60419 51.6617 8.8889 51.5259 9.26631 51.5259ZM9.20672 51.8711C8.92532 51.8711 8.72254 51.9522 8.59839 52.1144C8.47425 52.275 8.41217 52.5464 8.41217 52.9288C8.41217 53.3112 8.4759 53.5851 8.60336 53.7507C8.73082 53.9145 8.93525 53.9965 9.21665 53.9965C9.46992 53.9965 9.65862 53.9046 9.78277 53.7209C9.90692 53.5355 9.96899 53.2698 9.96899 52.9238C9.96899 52.5696 9.90692 52.3056 9.78277 52.1318C9.65862 51.958 9.4666 51.8711 9.20672 51.8711Z" fill="#4A4A4A"/>
<path d="M10.8391 51.5706H11.2811L11.877 53.1225C12.0078 53.4767 12.0889 53.7325 12.1203 53.8897H12.1402C12.1617 53.8053 12.2064 53.6613 12.2743 53.4577C12.3438 53.2524 12.5689 52.6234 12.9496 51.5706H13.3916L12.2221 54.6694C12.1063 54.9756 11.9705 55.1924 11.8149 55.3199C11.661 55.449 11.4714 55.5136 11.2463 55.5136C11.1205 55.5136 10.9964 55.4995 10.8739 55.4714V55.1411C10.9649 55.161 11.0667 55.1709 11.1793 55.1709C11.4623 55.1709 11.6643 55.012 11.7851 54.6942L11.9366 54.3069L10.8391 51.5706Z" fill="#4A4A4A"/>
<defs>
<filter id="filter0_d" x="1" y="1" width="50" height="50" filterUnits="userSpaceOnUse" color-interpolation-filters="sRGB">
<feFlood flood-opacity="0" result="BackgroundImageFix"/>
<feColorMatrix in="SourceAlpha" type="matrix" values="0 0 0 0 0 0 0 0 0 0 0 0 0 0 0 0 0 0 127 0" result="hardAlpha"/>
<feOffset dy="1"/>
<feGaussianBlur stdDeviation="1"/>
<feColorMatrix type="matrix" values="0 0 0 0 0 0 0 0 0 0 0 0 0 0 0 0 0 0 0.1 0"/>
<feBlend mode="normal" in2="BackgroundImageFix" result="effect1_dropShadow"/>
<feBlend mode="normal" in="SourceGraphic" in2="effect1_dropShadow" result="shape"/>
</filter>
<linearGradient id="paint0_linear" x1="16.7668" y1="19.4635" x2="37.2926" y2="19.4635" gradientUnits="userSpaceOnUse">
<stop offset="0.04" stop-color="#FAF8E8"/>
<stop offset="0.418" stop-color="#FAF8E8"/>
<stop offset="0.485" stop-color="#F4F0DD"/>
<stop offset="0.599" stop-color="#E4DBC2"/>
<stop offset="0.747" stop-color="#CBB895"/>
<stop offset="0.797" stop-color="#C2AC85"/>
<stop offset="1" stop-color="#AF9672"/>
</linearGradient>
<linearGradient id="paint1_linear" x1="20.837" y1="26.7933" x2="31.7222" y2="26.7933" gradientUnits="userSpaceOnUse">
<stop stop-color="#F9F9EC"/>
<stop offset="0.0525879" stop-color="#F9F9EC"/>
<stop offset="0.3844" stop-color="#F9F9EC"/>
<stop offset="0.5145" stop-color="#F5F4E5"/>
<stop offset="0.7094" stop-color="#EAE5D0"/>
<stop offset="0.9441" stop-color="#D9CCAF"/>
<stop offset="0.9987" stop-color="#D4C6A6"/>
</linearGradient>
<linearGradient id="paint2_linear" x1="17.2371" y1="17.1172" x2="19.2144" y2="17.1172" gradientUnits="userSpaceOnUse">
<stop stop-color="#E5D4BF"/>
<stop offset="1" stop-color="#F2E8D7"/>
</linearGradient>
<linearGradient id="paint3_linear" x1="20.1627" y1="14.9732" x2="21.4185" y2="15.1221" gradientUnits="userSpaceOnUse">
<stop stop-color="#E9DAC7"/>
<stop offset="0.494" stop-color="#ECE1D2"/>
<stop offset="1" stop-color="#EEE5D7"/>
</linearGradient>
<linearGradient id="paint4_linear" x1="23.1458" y1="16.1947" x2="25.1566" y2="16.1947" gradientUnits="userSpaceOnUse">
<stop stop-color="#E9DAC7"/>
<stop offset="1" stop-color="#EBDECC"/>
</linearGradient>
<linearGradient id="paint5_linear" x1="30.9227" y1="16.0604" x2="29.8881" y2="18.2605" gradientUnits="userSpaceOnUse">
<stop stop-color="#AF9677"/>
<stop offset="1" stop-color="#BFAD8F"/>
</linearGradient>
<linearGradient id="paint6_linear" x1="32.1091" y1="19.7" x2="35.6781" y2="19.7" gradientUnits="userSpaceOnUse">
<stop stop-color="#B29F88"/>
<stop offset="0.255" stop-color="#B4A28B"/>
<stop offset="1" stop-color="#B8A790"/>
</linearGradient>
</defs>
</svg>
